<svg xmlns="http://www.w3.org/2000/svg" version="1.1" xmlns:xlink="http://www.w3.org/1999/xlink" xmlns:svgjs="http://svgjs.dev/svgjs" width="100%" height="100%" viewBox="0 0 1000 600"><rect width="1000" height="600" x="0" y="0" fill="#533549"/><g><circle r="166.66666666666666" cx="280.45405069986975" cy="302.67625745333237" fill="#f6b042" transform="matrix(1.0985403574118218,0,0,1.0985403574118218,0,-32.50206428485703)"/><path d="M249.29753181755362 233.63243767967361L249.29753181755362 233.63243767967361Q253.73129221219543 233.63243767967361 258.05821500696635 232.96470268048057Q262.3851378017373 232.29696768128753 266.7921887964114 232.29696768128753L266.7921887964114 232.29696768128753Q271.59988079060133 232.29696768128753 276.3274445848881 232.77773688070653Q281.0282989792071 233.25850608012553 285.83599097339703 233.63243767967361L285.83599097339703 233.63243767967361Q280.2537263801432 232.67089928083564 274.69817118685705 232.4038052811584Q269.1159065936032 232.11000188151348 263.53364200034935 232.11000188151348L263.53364200034935 232.11000188151348Q260.0614200045455 232.11000188151348 256.69603560861253 232.19013008141667Q253.3306512126796 232.29696768128753 249.88513861684348 232.4839334810616L249.88513861684348 232.4839334810616Q251.40757441500364 229.99995928406346 254.29218961151759 229.0384208852255Q257.17680480803153 228.0768824863875 259.87445420477144 228.0768824863875L259.87445420477144 228.0768824863875L260.8359926036094 228.0768824863875L265.64368459779934 228.26384828616156L266.4182571968633 230.1869250838375Q267.96740239499115 229.7862840843217 269.30287239337724 229.7862840843217L269.30287239337724 229.7862840843217L272.37445338966523 229.7862840843217Q276.9951795840811 229.7862840843217 281.615905778497 230.48072848348247Q286.23663197291285 231.1484634826755 291.2312897668768 231.1484634826755L291.2312897668768 231.1484634826755L293.5282981641009 231.1484634826755Q294.6768023627129 231.1484634826755 296.03898176106674 230.74782248315967L296.03898176106674 230.74782248315967L296.4129133606149 229.7862840843217Q303.9182547515447 230.1869250838375 311.6105619422485 230.1869250838375L311.6105619422485 230.1869250838375Q314.49517713876253 230.1869250838375 316.71205733608343 231.33542928244955Q318.92893753340434 232.4839334810616 321.5998775301765 232.4839334810616L321.5998775301765 232.4839334810616L321.5998775301765 236.9176938757034Q321.5998775301765 238.06619807431542 321.2259459306284 238.92089887328254Q320.8520143310803 239.80230907221738 319.89047593224234 239.80230907221738L319.89047593224234 239.80230907221738L318.71526233366257 239.6153432724433L318.71526233366257 241.3247448703775Q320.6383391313385 242.68692426873133 322.00051852969233 244.79696686618132Q323.3359885280784 246.90700946363137 323.3359885280784 249.23072726082313L323.3359885280784 249.23072726082313Q323.3359885280784 250.94012885875733 322.48128772911133 251.9016672575953Q321.5998775301765 252.8632056564333 320.2644075317904 253.4508124557232Q318.92893753340434 254.03841925501308 317.3797923352765 254.11854745491624Q315.8306471371486 254.22538505478713 314.49517713876253 254.22538505478713L314.49517713876253 254.22538505478713Q302.3691095534168 254.22538505478713 289.49517876897494 252.97004325630422Q276.621247984533 251.71470145782126 263.90757359989743 249.60465886037125L263.90757359989743 249.60465886037125L260.27509520428725 250.56619725920922Q260.4620610040613 251.34076985827318 260.75586440370625 254.11854745491624Q261.0229584033835 256.92303445152703 261.4235994028993 260.8493162467821Q261.7975310024474 264.802307442005 262.2783002018664 269.20935843667905Q262.7590694012854 273.64311883132086 263.15971040080126 277.3824348268019Q263.53364200034935 281.1484602222507 263.7206078001234 283.7392720191197Q263.90757359989743 286.3300838159887 263.90757359989743 286.51704961576274L263.90757359989743 286.51704961576274L271.59988079060133 286.51704961576274L271.59988079060133 288.44012641343875Q275.07210278640514 287.47858801460075 277.582786383371 287.47858801460075L277.582786383371 287.47858801460075Q280.654367379659 287.47858801460075 283.53898257617294 288.0661948138906Q286.4235977726869 288.6538016131805 289.869110368523 288.6538016131805L289.869110368523 288.6538016131805Q291.4182555666509 288.6538016131805 292.86056316490783 288.44012641343875Q294.30287076316483 288.2531606136647 295.8520159612927 287.8792290141166L295.8520159612927 287.8792290141166L295.8520159612927 286.51704961576274Q292.96740076477874 286.7307248155045 290.0827855682648 286.8108530154077Q287.19817037175085 286.9176906152786 284.31355517523684 286.9176906152786L284.31355517523684 286.9176906152786Q282.3904783775609 286.9176906152786 280.5475297797881 286.8108530154077Q278.731290581983 286.7307248155045 276.9951795840811 286.51704961576274L276.9951795840811 286.51704961576274Q285.0614183743331 286.51704961576274 292.86056316490783 285.9561522164406Q300.65970795548265 285.36854541715076 308.7259467457346 285.36854541715076L308.7259467457346 285.36854541715076Q311.98449354179667 285.36854541715076 314.6821429385366 287.10465641505266Q317.3797923352765 288.84076741295456 317.3797923352765 292.49995520853247L317.3797923352765 292.49995520853247Q317.3797923352765 293.4614936073704 317.00586073572833 294.20935680646664Q316.6052197362125 294.9839294055306 315.6436813373745 294.9839294055306L315.6436813373745 294.9839294055306L314.49517713876253 294.7969636057565L314.49517713876253 296.53307460365846Q316.4182539364385 298.0555104018186 317.5667581350505 300.2723905991395Q318.71526233366257 302.4892707964604 318.71526233366257 304.7862791936845L318.71526233366257 304.7862791936845Q318.71526233366257 306.70935599136044 316.8990231358575 307.8845695899402Q315.0827839380524 309.03307378855226 312.3851345413125 309.7008087877453Q309.6874851445726 310.36854378693835 306.3221007486396 310.5555095867124Q302.9567163527067 310.76918478645416 300.07210115619273 310.76918478645416L300.07210115619273 310.76918478645416Q291.6052213664249 310.76918478645416 284.3936833751401 309.3268771881972Q277.1821453838552 307.8845695899402 269.8904791926671 307.8845695899402L269.8904791926671 307.8845695899402Q268.7152655940873 307.8845695899402 266.7921887964114 308.2585011894883L266.7921887964114 308.2585011894883Q267.37979559570124 314.6153383818061 267.37979559570124 321.13243197393024L267.37979559570124 321.13243197393024Q267.37979559570124 329.99995276321386 266.7921887964114 338.92089235243293Q266.2312913970892 347.86854134161973 266.2312913970892 356.7093527309357L266.2312913970892 356.7093527309357Q266.2312913970892 358.07153212928944 266.4182571968633 360.1815747267395Q266.60522299663734 362.29161732418953 266.60522299663734 364.4016599216395L266.60522299663734 364.4016599216395Q266.60522299663734 367.0993093183794 265.9374879974443 369.2093519158295Q265.26975299825125 371.3461039132472 262.7590694012854 371.3461039132472L262.7590694012854 371.3461039132472L262.7590694012854 320.17089357509224Q262.19817200196326 325.9401239681202 262.09133440209234 331.6292261612449Q261.98449680222143 337.29161895440194 261.98449680222143 342.8738835476558L261.98449680222143 342.8738835476558L261.98449680222143 362.8792241234794Q261.98449680222143 366.9123435186054 261.61056520267334 371.3461039132472L261.61056520267334 371.3461039132472L258.7259500061594 370.7584971139573L258.7259500061594 374.23071910976114Q257.9513774070955 375.5661891081472 256.69603560861253 376.6345651068561Q255.46740321009733 377.6762317055973 253.91825801196947 377.6762317055973L253.91825801196947 377.6762317055973Q251.9951812142935 377.6762317055973 250.84667701568148 376.82153090663013Q249.69817281706943 375.94012070769537 249.00372841790866 374.6046507093093Q248.33599341871562 373.2691807109232 248.14902761894157 371.6131979129244Q247.96206181916753 369.9839245148934 247.96206181916753 368.6484545165073L247.96206181916753 368.6484545165073Q247.96206181916753 360.3685405265135 248.73663441823146 351.9016607367457Q249.48449761732766 343.46149034694565 249.48449761732766 334.99461055717785L249.48449761732766 334.99461055717785Q249.48449761732766 329.7862775634721 248.9236002180055 324.6046539697341Q248.33599341871562 319.423030375996 247.5614208196517 314.2146973822903L247.5614208196517 314.2146973822903Q247.77509601939346 322.30764557251 248.0421900190707 330.08008096311704Q248.33599341871562 337.8792257536918 248.33599341871562 345.7584987441697L248.33599341871562 345.7584987441697Q248.33599341871562 352.4892675360356 247.96206181916753 358.9262329282565Q247.5614208196517 365.3631983204775 246.41291662103964 371.9070013125693L246.41291662103964 371.9070013125693Q243.92894242404154 368.8354203162814 243.92894242404154 365.3631983204775L243.92894242404154 365.3631983204775Q243.92894242404154 360.95614732580344 244.19603642371874 356.33542113138753Q244.4898398233637 351.7146949369717 244.4898398233637 347.3076439422976L244.4898398233637 347.3076439422976L247.00052342032953 347.3076439422976Q245.85201922171748 340.9508067499798 245.6383440219757 334.593969557662L245.6383440219757 334.593969557662L245.26441242242763 321.7200387732201Q245.07744662265355 315.17623578112824 244.67680562313774 308.7392703889073Q244.30287402358962 302.30230499668636 242.75372882546176 295.94546780436855L242.75372882546176 295.94546780436855L241.60522462684975 296.53307460365846Q244.30287402358962 319.20935517625423 244.4898398233637 342.2862767483659L244.4898398233637 342.2862767483659Q243.92894242404154 323.83008137067014 241.7921904266238 305.7478175925225L241.7921904266238 305.7478175925225Q239.68214782917377 286.51704961576274 238.1597120310136 267.09931583922906L238.1597120310136 267.09931583922906Q237.7590710314978 266.13777744039106 237.6789428315946 264.8824356419081Q237.57210523172375 263.65380324339293 237.57210523172375 262.47858964481316L237.57210523172375 262.47858964481316Q237.57210523172375 258.846111249203 237.86590863136868 255.48072685327006Q238.1597120310136 252.1153424573371 238.1597120310136 248.26918886198516L238.1597120310136 248.26918886198516L242.96740402520354 247.86854786246934Q245.07744662265355 247.86854786246934 245.3712500222985 250.08542805979025Q245.6383440219757 252.30230825711118 245.6383440219757 253.63777825549727L245.6383440219757 253.63777825549727L248.14902761894157 253.63777825549727Q248.5229592184897 251.15380405849913 249.96526681674666 248.16235126211427Q251.40757441500364 245.17089846572944 254.10522381174354 244.20936006689146L254.10522381174354 244.20936006689146L253.91825801196947 243.6484626675693L252.18214701406757 244.20936006689146Q250.2590702163916 243.24782166805346 249.4043694174245 241.4315824702484Q248.5229592184897 239.6153432724433 248.5229592184897 237.47859127502556L248.5229592184897 237.47859127502556Q248.5229592184897 236.51705287618756 248.9236002180055 235.5555144773496Q249.29753181755362 234.59397607851162 249.29753181755362 233.63243767967361ZM264.6821461989614 290.17623741134065L264.6821461989614 290.9508100104046Q267.96740239499115 290.9508100104046 271.11911159118233 291.2446134100495Q274.2975301873412 291.53841680969447 277.582786383371 291.53841680969447L277.582786383371 291.53841680969447L279.2921879813052 291.53841680969447L286.984495172009 291.3247416099527Q281.42893997872295 290.57687841085647 275.8466753854691 290.76384421063057Q270.26441079221524 290.9508100104046 264.6821461989614 290.17623741134065L264.6821461989614 290.17623741134065ZM283.1383415766571 228.8247456854837L283.1383415766571 228.8247456854837Q276.80821378430704 228.0768824863875 270.4513765919893 227.67624148687165L270.4513765919893 227.67624148687165Q280.46740157988495 228.0768824863875 290.643682967587 229.22538668499953L290.643682967587 229.22538668499953Q293.1543665645528 229.41235248477358 295.4513749617769 229.59931828454765L295.4513749617769 229.59931828454765Q289.1212471694268 229.59931828454765 283.1383415766571 228.8247456854837ZM258.53898420638535 246.1324368645674L259.09988160570754 246.90700946363137Q260.27509520428725 246.53307786408325 263.2398386007044 246.34611206430918Q266.2312913970892 246.1324368645674 267.5667613954753 245.94547106479337L267.5667613954753 245.94547106479337L262.94603520105943 245.94547106479337Q259.87445420477144 245.94547106479337 258.53898420638535 246.1324368645674L258.53898420638535 246.1324368645674ZM272.77509438918105 304.2253817943623L272.1874875898912 304.2253817943623Q274.2975301873412 304.59931339391045 276.4075727847912 304.7862791936845L276.4075727847912 304.7862791936845Q277.9567179829191 304.99995439342626 279.50586318104695 305.37388599297435L279.50586318104695 305.37388599297435Q277.9567179829191 304.99995439342626 276.621247984533 304.59931339391045L276.621247984533 304.59931339391045Q274.8851369866311 304.2253817943623 272.77509438918105 304.2253817943623L272.77509438918105 304.2253817943623ZM296.4129133606149 229.7862840843217L296.4129133606149 229.59931828454765L295.4513749617769 229.59931828454765Q295.8520159612927 229.59931828454765 296.4129133606149 229.7862840843217L296.4129133606149 229.7862840843217ZM280.46740157988495 305.37388599297435L280.46740157988495 305.37388599297435Q280.0667605803691 305.37388599297435 279.50586318104695 305.37388599297435L279.50586318104695 305.37388599297435Q280.0667605803691 305.37388599297435 280.46740157988495 305.37388599297435Z " fill="#533549" transform="matrix(1.0985403574118218,0,0,1.0985403574118218,0,-32.50206428485703)"/><path d="M530.4540479818431 352.1746889284629L530.4540479818431 352.1746889284629Q530.4540479818431 351.0526216713721 531.7291244103553 350.13456664284325Q533.029702367438 349.2165116143144 534.7638063102146 348.50246881434754Q536.5234117815614 347.7629244858104 538.2575157243382 347.201890857265Q539.991619667115 346.66635875728986 540.9096746956437 346.2838358287362L540.9096746956437 346.2838358287362Q549.7332035809486 347.38040155725673 558.5567324662536 348.11994588579387Q567.3547598229882 348.85949021433095 576.1782887082932 348.85949021433095L576.1782887082932 348.85949021433095Q579.4679858938548 348.85949021433095 585.3588389935816 348.75748410005Q591.224190564738 348.6809795143393 598.2116093929852 348.11994588579387Q605.1735266926623 347.5844137858187 612.3394562209012 346.38584194301717Q619.5053857491403 345.18727010021564 625.3707373202967 342.9941386431745Q631.2615904200234 340.7755056575632 634.9338105341387 337.4858084720015Q638.6060306482541 334.1706097578696 638.6060306482541 329.223313215242L638.6060306482541 329.223313215242Q638.6060306482541 325.16857017257297 636.8464251769071 321.95537757272206Q635.1123212341304 318.7421849728711 632.256150034263 316.2685367015573Q629.4254803629657 313.7948884302435 625.9317709488421 312.13728907317756L625.9317709488421 312.13728907317756Q624.6566945203298 311.3977447446404 623.1776058632555 310.86221264466525L623.1776058632555 310.86221264466525Q624.6566945203298 311.5762554446321 625.9317709488421 312.31579977316926L625.9317709488421 312.31579977316926Q629.2469696629739 314.1519098302269 631.8991286342795 316.8295703301027Q634.551287605585 319.4817293014082 636.2088869626509 322.6949219012592Q637.866486319717 325.9081145011101 637.866486319717 329.9373560152089L637.866486319717 329.9373560152089Q637.866486319717 334.3491204578613 634.653293719866 337.3838023577205Q631.4401011200151 340.41848425757973 626.3907984631065 342.4331050146291Q621.3414958061978 344.4477257716785 615.1956274207687 345.5442915001991Q609.0497590353395 346.66635875728986 602.9803952356211 347.201890857265Q596.9110314359027 347.7629244858104 591.7852241932834 347.8394290715212Q586.6339154220939 347.94143518580216 583.7012396365155 347.94143518580216L583.7012396365155 347.94143518580216Q574.3421786512355 347.94143518580216 564.8811115516744 347.303896971546Q555.4200444521134 346.66635875728986 546.0609834668332 345.748303728761L546.0609834668332 345.748303728761Q549.3761821809652 344.8302487002322 552.7678854808079 344.3712211859678Q556.1595887806504 343.9121936717034 559.6532981947742 343.9121936717034L559.6532981947742 343.9121936717034Q565.5186497659306 343.9121936717034 571.2054906370953 343.9886982574141Q576.9178330368303 344.0907043716951 582.604673907995 344.0907043716951L582.604673907995 344.0907043716951Q589.3880805076803 344.0907043716951 595.9929764073739 343.81018755742235Q602.6233738356377 343.52967074314967 609.5852911353147 342.4331050146291L609.5852911353147 342.4331050146291L610.1463247638601 344.6262364716702Q612.9004898494466 344.0907043716951 617.1082420635371 342.89213252889357Q621.3414958061978 341.693560686092 625.2942327345859 339.8574506290343Q629.2469696629739 338.0213405719767 632.0776393342712 335.26717548639016Q634.9338105341387 332.51301040080364 634.9338105341387 328.84079028668833L634.9338105341387 328.84079028668833Q634.9338105341387 323.510970815507 631.0830797200316 319.4817293014082Q627.2068473773543 315.45248778730945 621.2394896919169 312.2392951874585Q615.2721320064794 309.02610258760757 607.749181078257 306.6289589020045Q600.2262301500347 304.23181521640146 592.9837960360849 302.3957051593438Q585.715860393565 300.5595951022861 579.2894751938632 299.1060079737821Q572.8630899941613 297.62691931670787 569.0123591800542 296.35184288819556L569.0123591800542 296.35184288819556L569.0123591800542 297.44840861671616Q572.8630899941613 298.9274972737904 579.1109644938714 300.4830905165754Q585.3588389935816 302.0386837593603 592.6012731075313 303.874793816418Q599.8692087500513 305.7109038734757 607.2136489782819 308.00604144479775Q614.5580892065126 310.3011790161199 620.52544689195 313.4123655016898Q626.4928045773875 316.54905351583 630.2415292772135 320.57829502992877Q634.0157555056098 324.6330380725978 634.0157555056098 329.7588453152171L634.0157555056098 329.7588453152171Q634.0157555056098 332.69152110079534 631.2615904200234 334.9101540864067Q628.5074253344368 337.10328554344784 624.7331991060405 338.65887878623283Q620.9844744062144 340.23997355758803 617.1082420635371 341.15802858611687Q613.2575112494301 342.0760836146457 611.2428904923806 342.4331050146291L611.2428904923806 342.4331050146291Q613.6400341779838 341.87207138608375 617.3887588778098 340.8775117718441Q621.1629851062062 339.8574506290343 624.7331991060405 338.1998512719684Q628.3289146344451 336.56775344347267 630.8790674914696 334.27261587215054Q633.4547218770645 331.9774783008285 633.4547218770645 328.84079028668833L633.4547218770645 328.84079028668833Q633.4547218770645 323.71498304406896 629.4254803629657 320.22127362994536Q625.3707373202967 316.7275642158217 618.7658414206031 313.9733991302352Q612.1609455209095 311.2192340446487 603.7199395641583 309.02610258760757Q595.278933607407 306.8074696019962 586.3533986078212 304.23181521640146Q577.4533651368055 301.6816623593769 569.0123591800542 298.366463645245Q560.5713532233029 295.05126493111305 553.9664573236093 290.10396838848544Q547.3360598953456 285.15667184585783 543.3068183812468 278.3477637176023Q539.277576867148 271.56435711791704 539.277576867148 262.00128390407497L539.277576867148 262.00128390407497Q539.277576867148 252.6422229187949 543.7658458955112 246.1393331333823Q548.2541149238743 239.61094181939944 555.3435398664026 235.4796941910197Q562.4074632803606 231.34844656263994 570.8484692371119 229.51233650558225Q579.2894751938632 227.67622644852457 587.1949490506393 227.67622644852457L587.1949490506393 227.67622644852457Q598.7471414929604 227.67622644852457 609.8658079495874 230.99142516265647Q620.9844744062144 234.28112234821816 630.8790674914696 240.17197544794485L630.8790674914696 240.17197544794485Q629.7825017629491 240.52899684792828 629.6039910629574 241.16653506218444Q629.4254803629657 241.80407327644056 629.3234742486846 242.54361760497767Q629.2469696629739 243.2831619335148 628.9664528487012 243.8441955620602Q628.6859360344286 244.37972766203535 627.7678810058998 244.37972766203535L627.7678810058998 244.37972766203535Q627.0283366773626 244.37972766203535 624.9117098060323 243.7421894477792Q622.8205844632721 243.10465123352307 620.423440777669 242.26310079070498Q618.026297092066 241.44705187645712 615.8331656350249 240.70750754792002Q613.6400341779838 239.9679632193829 612.9004898494466 239.61094181939944L612.9004898494466 239.61094181939944L612.3394562209012 241.26854117646542Q613.9970555779671 242.00808550500253 616.6492145492728 243.3851680477958Q619.3268750491485 244.76225059058905 621.8005233204623 246.67486523335745Q624.2741715917762 248.6129814046961 626.033777063123 250.8061128617372Q627.7678810058998 253.02474584734856 627.7678810058998 255.21787730438967L627.7678810058998 255.21787730438967Q627.7678810058998 257.6150209899928 625.5747495488586 257.6150209899928L625.5747495488586 257.6150209899928Q622.8205844632721 257.6150209899928 619.0463582348758 256.1359323329185Q615.2721320064794 254.65684367584427 610.6818568638353 252.92273973306757Q606.0915817211911 251.1886357902909 600.8637683642908 249.70954713321666Q595.6359550073905 248.23045847614242 590.3061355362092 248.23045847614242L590.3061355362092 248.23045847614242Q586.8124261220855 248.23045847614242 582.1456463937307 248.8934982189688Q577.4533651368055 249.53103643322493 573.143606808434 251.26514037600163Q568.8338484800624 253.02474584734856 565.9011726944843 256.03392621863753Q562.9429953803358 259.06860811849674 562.9429953803358 263.65888326114094L562.9429953803358 263.65888326114094Q562.9429953803358 267.8921370038017 566.8957323087238 270.8248127893799Q570.8484692371119 273.75748857495813 577.3768605510948 276.1546322605612Q583.8797503365073 278.52627441759404 592.1422455932668 280.7449074032054Q600.4047408500264 282.9380388602465 609.1262636210504 285.6156993601223Q617.8477863920742 288.26785833142776 626.1102816488337 291.7615677455514Q634.3727769055934 295.255277159675 640.9011682195761 300.2025737023027Q647.4040580049888 305.14987024493024 651.3567949333768 311.9587783731858Q655.3095318617649 318.7421849728711 655.3095318617649 327.92273525815943L655.3095318617649 327.92273525815943Q655.3095318617649 336.9247748434561 651.6373117476495 343.17264934316626Q647.9650916335341 349.4205238428764 641.8957278338157 353.55177147125613Q635.8518655626675 357.68301909963594 628.1249024058832 359.97815667095796Q620.423440777669 362.2732942422801 612.2629516351905 363.44636455651136Q604.0769609641417 364.64493639931294 596.0949825216549 364.9254532135856Q588.113004079168 365.2059700278583 581.6866188794662 365.2059700278583L581.6866188794662 365.2059700278583L563.3255183088895 365.2059700278583Q561.6679189518236 365.2059700278583 558.8117477519561 365.10396391357733Q555.9810780806588 365.0274593278666 553.2269129950723 364.74694251359386Q550.4727479094857 364.4664256993212 548.4581271524364 363.72688137078404Q546.4180048668168 362.98733704224696 546.4180048668168 361.8907713137264L546.4180048668168 361.8907713137264L546.6220170953786 360.9727162851976Q554.1449680236011 361.35523921375125 561.4894082518317 361.6102544994537Q568.8338484800624 361.8907713137264 576.3567994082848 361.8907713137264L576.3567994082848 361.8907713137264Q583.3442182365321 361.8907713137264 590.3061355362092 361.8907713137264L590.3061355362092 361.8907713137264Q596.5540100359193 361.7122606137347 602.8018845356294 361.1512269851893L602.8018845356294 361.1512269851893Q599.6651965214892 361.35523921375125 596.5540100359193 361.53374991374295L596.5540100359193 361.53374991374295Q592.7032792218122 361.53374991374295 589.0310591076968 361.53374991374295L589.0310591076968 361.53374991374295L581.6866188794662 361.53374991374295Q564.4220840374101 361.53374991374295 547.7185828238993 360.4371841852224L547.7185828238993 360.4371841852224Q548.0756042238827 358.9580955281482 548.0756042238827 358.39706189960276L548.0756042238827 358.39706189960276Q548.0756042238827 357.68301909963594 547.7185828238993 356.9434747710988L547.7185828238993 356.9434747710988Q547.3360598953456 356.9434747710988 546.6985216810895 357.01997935680953Q546.0609834668332 357.1219854710905 545.1429284383045 357.1219854710905L545.1429284383045 357.1219854710905Q543.1283076812551 357.1219854710905 540.6546594099412 356.9434747710988Q538.1555096100572 356.76496407110704 535.8603720387351 356.20393044256167Q533.565234467413 355.6428968140163 532.009641224628 354.6483371997767Q530.4540479818431 353.62827605696685 530.4540479818431 352.1746889284629ZM643.1963057908982 347.38040155725673L643.1963057908982 347.38040155725673Q640.059617776758 350.13456664284325 636.5914098912046 351.97067669990093L636.5914098912046 351.97067669990093Q633.4547218770645 353.62827605696685 630.1650246915028 355.1073647140411L630.1650246915028 355.1073647140411Q633.4547218770645 354.0107989855206 636.5914098912046 352.5317103284463L636.5914098912046 352.5317103284463Q640.059617776758 351.0526216713721 643.1963057908982 347.38040155725673ZM761.8039151711099 332.8955333293573L760.1463158140439 334.527631157853L759.0497500855233 333.99209905787785Q751.3482884573092 331.9774783008285 742.703270271996 331.4164446722831Q734.0837536152529 330.85541104373766 725.0817140299564 329.01930098668004L725.0817140299564 329.01930098668004Q733.9052429152613 330.85541104373766 742.3462488720126 331.8754721865475Q750.7872548287638 332.8955333293573 759.0497500855233 335.6496984149438L759.0497500855233 335.6496984149438Q756.4740956999285 337.28179624343954 753.5414199143503 337.28179624343954L753.5414199143503 337.28179624343954Q750.0477105002267 336.9247748434561 746.656007200384 336.18523051491894Q743.2643039005413 335.44568618638186 739.4135730864343 335.08866478639845L739.4135730864343 335.08866478639845Q739.4135730864343 333.99209905787785 739.9491051864095 333.4310654293325L739.9491051864095 333.4310654293325Q734.6192857152282 333.4310654293325 729.3914723583279 332.33449970081193Q724.1636590014276 331.2379339722914 719.2163624588 329.8608514294981Q714.2435643876021 328.48376888670487 709.5767846592471 327.28519704390334Q704.884503402322 326.0866252011018 700.8552618882233 326.0866252011018L700.8552618882233 326.0866252011018Q700.8552618882233 326.6476588296472 700.6512496596612 326.6476588296472L700.6512496596612 326.6476588296472Q705.4455370308674 327.565713858176 709.6532892449578 329.223313215242Q713.8865429876187 330.85541104373766 719.2163624588 331.77346607226656L719.2163624588 331.77346607226656Q724.3421697014193 333.07404402934907 729.2129616583361 333.6095761293242Q734.0837536152529 334.1706097578696 738.8525394578888 335.08866478639845L738.8525394578888 335.08866478639845Q731.1510778296748 334.3491204578613 723.1435978586177 332.8955333293573Q715.161619416131 331.4164446722831 707.4601577879167 329.5803346152254L707.4601577879167 329.5803346152254L698.8151396026036 327.3872031581843Q694.2248644599593 339.1179063004972 689.5580847316045 350.41508345711594Q684.8658034746793 361.7122606137347 680.4540390320268 373.2899545846261L680.4540390320268 373.2899545846261Q680.0970176320434 372.55041025608904 679.2809687177955 372.448404141808Q678.4394182749775 372.3718995560973 677.6233693607296 372.3718995560973Q676.7818189179114 372.3718995560973 676.0677761179446 371.9128720418329Q675.3282317894075 371.4538445275685 675.3282317894075 369.9747558704942L675.3282317894075 369.9747558704942Q675.3282317894075 368.49566721341995 676.0677761179446 365.84350824211447Q676.7818189179114 363.1913492708089 678.8219412035311 358.7795848281565L678.8219412035311 358.7795848281565Q678.4394182749775 358.39706189960276 677.6233693607296 358.32055731389204Q676.7818189179114 358.21855119961106 676.424797517928 358.21855119961106L676.424797517928 358.21855119961106Q672.7525774038128 365.94551435639545 669.3608741039701 370.0767619847752Q665.9691708041274 374.20800961315496 663.9290485185078 374.20800961315496L663.9290485185078 374.20800961315496Q661.7359170614667 374.20800961315496 661.7359170614667 369.9747558704942L661.7359170614667 369.9747558704942Q661.7359170614667 366.4810464563706 663.0109934899789 361.07472239947856Q664.3115714470615 355.6428968140163 666.2241860898299 349.4205238428764Q668.1623022611685 343.17264934316626 670.5594459467716 336.4657473291917Q672.9310881038044 329.7588453152171 675.1497210894157 323.3324601155153L675.1497210894157 323.3324601155153Q673.1095988037961 322.05738368700304 670.8144612324741 321.4963500584576Q668.5193236611519 320.96081795848244 665.7651585755655 320.57829502992877L665.7651585755655 320.57829502992877Q666.3261922041108 319.8387507013917 666.3261922041108 318.7421849728711Q666.3261922041108 317.64561924435054 666.5047029041026 316.54905351583Q666.6832136040942 315.45248778730945 667.2442472326396 314.7129434587723Q667.8052808611851 313.9733991302352 669.2588679896891 313.9733991302352L669.2588679896891 313.9733991302352Q669.6413909182428 313.9733991302352 671.4775009753005 314.33042053021865L671.4775009753005 314.33042053021865L671.4775009753005 312.69832270172293Q668.5193236611519 311.2192340446487 666.9637304183669 309.20461328759933Q665.408137175582 307.1899925305499 665.408137175582 305.14987024493024L665.408137175582 305.14987024493024Q665.408137175582 300.76360733084806 673.8491431323333 300.76360733084806L673.8491431323333 300.76360733084806Q676.2462868179364 300.76360733084806 678.7199350892502 301.01862261655054Q681.1935833605639 301.29913943082323 683.7692377461588 301.6816623593769L683.7692377461588 301.6816623593769L692.21024370291 282.4025067602713Q694.9644087884965 276.1546322605612 698.1776013883474 269.5497363608676Q701.3907939881984 262.9193389326038 705.8025584308508 256.4929537329019Q710.2143228735033 250.0665685332001 715.7991576303871 244.30322307632463Q721.409493915841 238.5143760908789 728.7539341440718 233.92410094823472L728.7539341440718 233.92410094823472L731.5080992296582 232.82753521971418Q736.6594080008479 234.10261164822646 739.8726006006988 234.91866056247432Q743.0857932005496 235.7602110052924 745.100413957599 236.11723240527584L745.100413957599 236.11723240527584Q746.9365240146567 236.85677673381295 748.0330897431774 237.03528743380468L748.0330897431774 237.03528743380468L747.8545790431856 237.03528743380468L748.0330897431774 237.59632106235006Q748.0330897431774 237.7748317623418 747.8545790431856 237.9533424623335L747.8545790431856 237.9533424623335L750.0477105002267 241.80407327644056Q761.9824258711016 261.82277320408326 770.2449211278611 283.32056178880015Q778.5074163846206 304.79284884494683 784.3982694843473 325.55109310112664L784.3982694843473 325.55109310112664Q785.8518566128513 330.14136824377084 787.9684834841817 335.36918160067114Q790.085110355512 340.59699495757144 791.9977249982804 345.2892762144966Q793.935841169619 349.95605594285155 795.2109175981315 353.7302821712479Q796.5114955552139 357.479006871074 796.5114955552139 359.1366062281399L796.5114955552139 359.1366062281399Q796.5114955552139 360.4371841852224 795.9504619266685 360.6921994709249Q795.4149298266933 360.9727162851976 794.4968747981645 360.9727162851976L794.4968747981645 360.9727162851976Q789.7025874269583 349.0380009143227 785.4948352128679 337.4858084720015L785.4948352128679 337.4858084720015Q781.261581470207 326.0866252011018 777.2323399561084 314.5344327587806L777.2323399561084 314.5344327587806Q780.9045600702237 326.0866252011018 784.9338015843225 337.4858084720015L784.9338015843225 337.4858084720015Q789.1670553269831 349.0380009143227 793.3748075410737 360.9727162851976L793.3748075410737 360.9727162851976L792.0997311125615 360.9727162851976Q791.0031653840409 360.9727162851976 790.6206424554872 362.0692820137181L790.6206424554872 362.0692820137181Q791.0031653840409 362.45180494227185 791.5386974840161 364.0073981850568Q792.0997311125615 365.5629914278417 792.6607647411068 367.3225968991887Q793.196296841082 369.0567008419654 793.5788197696357 370.89281089902306Q793.935841169619 372.7289209560807 793.935841169619 373.6469759846096L793.935841169619 373.6469759846096Q793.935841169619 377.67621749870835 791.5386974840161 377.67621749870835L791.5386974840161 377.67621749870835Q790.2636210555037 377.67621749870835 789.5240767269667 377.1406853987332Q788.7845323984295 376.5796517701878 787.8664773699007 375.6615967416589L787.8664773699007 375.6615967416589L786.030367312843 373.8254866846013Q784.9338015843225 372.7289209560807 783.2762022272565 371.63235522756014L783.2762022272565 371.63235522756014L765.6546459852169 320.96081795848244Q769.5053767993239 332.8955333293573 773.2796030277203 344.8302487002322Q777.0538292561166 356.76496407110704 781.0830707702154 368.3171565134283L781.0830707702154 368.3171565134283Q778.1503949846372 364.82344709930464 775.6767467133234 359.87615055667703Q773.1775969134393 354.9288540140494 771.0864715706792 349.4205238428764Q768.9698446993488 343.9121936717034 767.1337346422912 338.12334668625766Q765.2976245852334 332.33449970081193 763.4615145281758 327.18319092962236L763.4615145281758 327.18319092962236Q763.4615145281758 327.565713858176 763.5380191138865 327.8462306724487Q763.6400252281675 328.1012459581512 763.6400252281675 328.48376888670487L763.6400252281675 328.48376888670487Q763.6400252281675 331.4164446722831 761.8039151711099 332.8955333293573L761.8039151711099 332.8955333293573ZM762.7219701996387 325.16857017257297L759.0497500855233 315.45248778730945Q759.4067714855067 315.45248778730945 760.1463158140439 315.1719709730367Q760.885860142581 314.891454158764 761.2428815425644 314.891454158764L761.2428815425644 314.891454158764Q755.1990192714162 299.64154007375726 749.2316615859788 285.33518254584953Q743.2643039005413 271.0033234893716 736.0983743723024 257.79353168998443L736.0983743723024 257.79353168998443L735.0018086437818 258.89009741850504L737.7559737293684 263.83739396113265Q744.1823589290702 275.5935986320158 749.3081661716895 288.08934763143606Q754.4594749428792 300.5595951022861 759.0497500855233 313.7948884302435L759.0497500855233 313.7948884302435Q753.719930614342 299.46302937376555 747.5740622289128 285.23317643156855Q741.4281938434838 271.0033234893716 734.4407750152365 259.4511310470504L734.4407750152365 259.4511310470504L733.7012306866993 259.8081524470339Q727.4788577155595 266.2345376467357 722.0470321300971 275.23657723203235Q716.6407080732051 284.238616817329 711.8719222305692 293.5976778026091L711.8719222305692 293.5976778026091L707.0776348593631 305.14987024493024L710.2143228735033 305.8894145734674Q712.9684879590898 306.6289589020045 715.6206469303953 307.44500781625237Q718.298307430271 308.28655825907043 720.3129281873205 309.20461328759933L720.3129281873205 309.20461328759933Q724.3421697014193 311.2192340446487 730.9470656011129 312.31579977316926Q737.5774630293766 313.4123655016898 743.9018421147975 314.43242664449957Q750.2262212002184 315.45248778730945 754.9185024571435 316.6255581015407Q759.6107837140687 317.82412994434225 759.6107837140687 320.04276292995365L759.6107837140687 320.04276292995365L737.194940100823 317.46710854435884Q739.2095608578724 317.82412994434225 742.1677381720208 318.2831574586067Q745.100413957599 318.7421849728711 748.1350958574583 319.3032186014165Q751.1442762287472 319.8387507013917 754.1024535428957 320.2977782156561Q757.035129328474 320.7568057299205 759.0497500855233 321.1393286584742L759.0497500855233 321.1393286584742Q759.0497500855233 321.6748607584493 758.9477439712423 322.13388827271376Q758.8712393855316 322.59291578697815 758.8712393855316 322.9754387155319L758.8712393855316 322.9754387155319Q758.8712393855316 323.3324601155153 759.330266899796 323.4344662297962Q759.7892944140605 323.510970815507 760.4268326283166 323.612976929788Q761.0643708425727 323.71498304406896 761.6254044711181 324.07200444405237L761.6254044711181 324.07200444405237Q762.1609365710932 324.25051514404413 762.7219701996387 325.16857017257297L762.7219701996387 325.16857017257297ZM719.2163624588 276.1546322605612L719.2163624588 276.1546322605612Q719.5733838587834 276.1546322605612 719.4713777445024 276.61365977482563Q719.3948731587917 277.07268728909 719.5733838587834 277.07268728909L719.5733838587834 277.07268728909Q719.9304052587668 277.07268728909 721.7665153158244 274.49703290349527Q723.6026253728821 271.92137851790045 725.9997690584852 268.6316813323388Q728.3969127440884 265.31648261820686 730.5900442011294 262.38380683262864Q732.7831756581705 259.4511310470504 733.7012306866993 258.53307601852157L733.7012306866993 258.53307601852157L732.7831756581705 257.23249806143906Q728.9324448440634 260.9047181755544 725.6427476585018 265.8775162467523Q722.3275489443698 270.8248127893799 719.2163624588 276.1546322605612ZM737.93448442936 256.3144430329103L737.7559737293684 256.3144430329103Q743.6213253005249 266.2345376467357 748.5941233717227 277.07268728909L748.5941233717227 277.07268728909Q753.3629092143586 287.7068247028824 757.5706614284491 298.366463645245L757.5706614284491 298.366463645245Q754.1024535428957 287.7068247028824 749.1296554716979 277.07268728909L749.1296554716979 277.07268728909Q744.0038482290785 266.2345376467357 737.93448442936 256.3144430329103L737.93448442936 256.3144430329103ZM765.8331566852086 283.8560938887753L765.8331566852086 283.8560938887753Q771.5454990849436 298.5449743452367 777.0538292561166 313.7948884302435L777.0538292561166 313.7948884302435Q771.9025204849271 298.9274972737904 766.2156796137623 284.4171275173207L766.2156796137623 284.4171275173207Q760.885860142581 270.08526846084277 753.8984413143338 255.5748987043731L753.8984413143338 255.5748987043731Q760.5288387425975 269.5497363608676 765.8331566852086 283.8560938887753ZM739.5920837864261 251.3671464902826L738.8525394578888 252.28520151881145Q741.249683143492 252.8207336187866 742.1677381720208 253.381767247332Q743.0857932005496 253.9428008758774 743.4428146005331 253.9428008758774L743.4428146005331 253.9428008758774L743.6213253005249 253.381767247332Q743.7998360005165 253.381767247332 742.8817809719877 253.2032565473403Q741.9637259434588 253.02474584734856 741.4281938434838 252.8207336187866L741.4281938434838 252.8207336187866L741.7852152434672 252.10669081881971L739.5920837864261 251.3671464902826ZM729.4934784726088 250.0665685332001L729.8504998725922 250.44909146175377L731.3295885296665 254.29982227586083L731.1510778296748 250.44909146175377Q730.7685549011211 250.44909146175377 730.3095273868568 250.27058076176206Q729.8504998725922 250.0665685332001 729.4934784726088 250.0665685332001L729.4934784726088 250.0665685332001ZM735.537340743757 257.05398736144735L734.6192857152282 255.77891093293508L733.3442092867159 256.6969659614639L734.4407750152365 258.1505530899679L735.537340743757 257.05398736144735ZM736.4553957722859 254.29982227586083L737.194940100823 255.39638800438138L737.3734508008147 255.39638800438138L736.4553957722859 254.12131157586913L736.4553957722859 254.29982227586083Z " fill="#f6b042" transform="matrix(1.0985403574118218,0,0,1.0985403574118218,0,-32.50206428485703)"/></g></svg>